<svg xmlns="http://www.w3.org/2000/svg" width="72" height="72" viewBox="0 0 72 72">
  <g id="Grupo_1107274" data-name="Grupo 1107274" transform="translate(-285 -3221.178)">
    <circle id="Elipse_12859" data-name="Elipse 12859" cx="36" cy="36" r="36" transform="translate(285 3221.178)" fill="#6af6e0"/>
    <g id="densidad" transform="translate(294.166 3233.202)">
      <g id="Grupo_1107231" data-name="Grupo 1107231" transform="translate(0)">
        <path id="Trazado_907597" data-name="Trazado 907597" d="M43.433,7.452A25.451,25.451,0,0,0,11.886,3.909a.994.994,0,0,0,1.06,1.681,23.461,23.461,0,1,1-6.282,5.8.994.994,0,1,0-1.59-1.192A25.443,25.443,0,0,0,25.442,50.885,25.442,25.442,0,0,0,43.433,7.452Z" transform="translate(0)" fill="#357b70"/>
        <path id="Trazado_907598" data-name="Trazado 907598" d="M76.706,247.924a5.279,5.279,0,1,0-5.279-5.279,5.285,5.285,0,0,0,5.279,5.279Zm0-8.571a3.292,3.292,0,1,1-3.292,3.292,3.3,3.3,0,0,1,3.292-3.292Z" transform="translate(-64.328 -213.776)" fill="#357b70"/>
        <path id="Trazado_907599" data-name="Trazado 907599" d="M186.812,190.6A4.183,4.183,0,1,0,191,186.419,4.188,4.188,0,0,0,186.812,190.6Zm6.379,0a2.2,2.2,0,1,1-2.2-2.2A2.2,2.2,0,0,1,193.191,190.6Z" transform="translate(-168.246 -167.892)" fill="#357b70"/>
        <path id="Trazado_907600" data-name="Trazado 907600" d="M91.339,143.163a3.143,3.143,0,1,0,3.143,3.143A3.147,3.147,0,0,0,91.339,143.163Zm0,4.3a1.156,1.156,0,1,1,1.156-1.156A1.157,1.157,0,0,1,91.339,147.462Z" transform="translate(-79.431 -128.935)" fill="#357b70"/>
        <path id="Trazado_907601" data-name="Trazado 907601" d="M168.327,83.419a3.143,3.143,0,1,0,3.143,3.143A3.147,3.147,0,0,0,168.327,83.419Zm0,4.3a1.156,1.156,0,1,1,1.156-1.156A1.157,1.157,0,0,1,168.327,87.718Z" transform="translate(-148.767 -75.128)" fill="#357b70"/>
        <path id="Trazado_907602" data-name="Trazado 907602" d="M369.386,158.507a3.143,3.143,0,1,0,3.143,3.143A3.147,3.147,0,0,0,369.386,158.507Zm0,4.3a1.156,1.156,0,1,1,1.156-1.156A1.157,1.157,0,0,1,369.386,162.806Z" transform="translate(-329.844 -142.754)" fill="#357b70"/>
        <path id="Trazado_907603" data-name="Trazado 907603" d="M329.9,349.84a3.143,3.143,0,1,0-3.143-3.143A3.147,3.147,0,0,0,329.9,349.84Zm0-4.3a1.156,1.156,0,1,1-1.156,1.156A1.157,1.157,0,0,1,329.9,345.541Z" transform="translate(-294.279 -309.409)" fill="#357b70"/>
        <path id="Trazado_907604" data-name="Trazado 907604" d="M134.6,351.528a3.143,3.143,0,1,0,3.143,3.143A3.147,3.147,0,0,0,134.6,351.528Zm0,4.3a1.156,1.156,0,1,1,1.156-1.156A1.157,1.157,0,0,1,134.6,355.827Z" transform="translate(-118.388 -316.592)" fill="#357b70"/>
        <path id="Trazado_907605" data-name="Trazado 907605" d="M213.391,300.884a5.279,5.279,0,1,0-5.279,5.279A5.285,5.285,0,0,0,213.391,300.884Zm-5.279,3.291a3.292,3.292,0,1,1,3.292-3.291A3.3,3.3,0,0,1,208.112,304.176Z" transform="translate(-182.675 -266.227)" fill="#357b70"/>
        <path id="Trazado_907606" data-name="Trazado 907606" d="M354.527,240.181a4.831,4.831,0,1,0-4.831,4.831A4.837,4.837,0,0,0,354.527,240.181Zm-7.675,0a2.844,2.844,0,1,1,2.844,2.844A2.847,2.847,0,0,1,346.852,240.181Z" transform="translate(-310.59 -211.96)" fill="#357b70"/>
        <path id="Trazado_907607" data-name="Trazado 907607" d="M260.993,75.982a5.615,5.615,0,1,0,5.615,5.615A5.622,5.622,0,0,0,260.993,75.982Zm0,9.243a3.628,3.628,0,1,1,3.628-3.628A3.632,3.632,0,0,1,260.993,85.225Z" transform="translate(-229.997 -68.431)" fill="#357b70"/>
        <ellipse id="Elipse_12866" data-name="Elipse 12866" cx="0.994" cy="0.994" rx="0.994" ry="0.994" transform="translate(7.873 6.477)" fill="#357b70"/>
        <ellipse id="Elipse_12867" data-name="Elipse 12867" cx="0.994" cy="0.994" rx="0.994" ry="0.994" transform="translate(22.127 14.604)" fill="#357b70"/>
        <ellipse id="Elipse_12868" data-name="Elipse 12868" cx="0.994" cy="0.994" rx="0.994" ry="0.994" transform="translate(14.926 20.437)" fill="#357b70"/>
        <ellipse id="Elipse_12869" data-name="Elipse 12869" cx="0.994" cy="0.994" rx="0.994" ry="0.994" transform="translate(19.211 27.876)" fill="#357b70"/>
        <ellipse id="Elipse_12870" data-name="Elipse 12870" cx="0.994" cy="0.994" rx="0.994" ry="0.994" transform="translate(30.178 27.228)" fill="#357b70"/>
        <ellipse id="Elipse_12871" data-name="Elipse 12871" cx="0.994" cy="0.994" rx="0.994" ry="0.994" transform="translate(29.626 41.215)" fill="#357b70"/>
        <circle id="Elipse_12872" data-name="Elipse 12872" cx="0.5" cy="0.5" r="0.5" transform="translate(25.885 42.798)" fill="#357b70"/>
        <ellipse id="Elipse_12873" data-name="Elipse 12873" cx="0.994" cy="0.994" rx="0.994" ry="0.994" transform="translate(33.079 21.886)" fill="#357b70"/>
      </g>
    </g>
  </g>
</svg>
