<svg xmlns="http://www.w3.org/2000/svg" width="72" height="72" viewBox="0 0 72 72">
  <g id="Grupo_1107275" data-name="Grupo 1107275" transform="translate(-705 -2880.023)">
    <circle id="Elipse_12854" data-name="Elipse 12854" cx="36" cy="36" r="36" transform="translate(705 2880.023)" fill="#6af6e0"/>
    <g id="prueba" transform="translate(722.964 2890.202)">
      <g id="Grupo_1107233" data-name="Grupo 1107233" transform="translate(21.918 21.409)">
        <g id="Grupo_1107232" data-name="Grupo 1107232">
          <path id="Trazado_907608" data-name="Trazado 907608" d="M286.923,232a.923.923,0,1,0,.923.923A.923.923,0,0,0,286.923,232Z" transform="translate(-286 -232)" fill="#357b70"/>
        </g>
      </g>
      <g id="Grupo_1107235" data-name="Grupo 1107235" transform="translate(18.226 15.872)">
        <g id="Grupo_1107234" data-name="Grupo 1107234">
          <path id="Trazado_907609" data-name="Trazado 907609" d="M246.923,172a.923.923,0,1,0,.923.923A.923.923,0,0,0,246.923,172Z" transform="translate(-246 -172)" fill="#357b70"/>
        </g>
      </g>
      <g id="Grupo_1107237" data-name="Grupo 1107237" transform="translate(7.153 39.866)">
        <g id="Grupo_1107236" data-name="Grupo 1107236">
          <path id="Trazado_907610" data-name="Trazado 907610" d="M126.923,432a.923.923,0,1,0,.923.923A.923.923,0,0,0,126.923,432Z" transform="translate(-126 -432)" fill="#357b70"/>
        </g>
      </g>
      <g id="Grupo_1107239" data-name="Grupo 1107239" transform="translate(0)">
        <g id="Grupo_1107238" data-name="Grupo 1107238">
          <path id="Trazado_907611" data-name="Trazado 907611" d="M85.95,37.621,74.1,16.554V5.379A2.769,2.769,0,0,0,73.177,0H62.1a2.769,2.769,0,0,0-.923,5.379V16.554L49.33,37.621a6.46,6.46,0,0,0,5.63,9.627H80.32a6.46,6.46,0,0,0,5.63-9.627ZM62.907,17.248a.922.922,0,0,0,.118-.452V5.537h.923a.923.923,0,1,0,0-1.846H62.1a.923.923,0,0,1,0-1.846H73.177a.923.923,0,0,1,0,1.846H71.331a.923.923,0,1,0,0,1.846h.923V16.8a.922.922,0,0,0,.118.452l5.439,9.67A17.793,17.793,0,0,0,68.139,28.9a15.858,15.858,0,0,1-12.366,1.036Zm21.4,25.87A4.57,4.57,0,0,1,80.32,45.4H54.96a4.614,4.614,0,0,1-4.021-6.877l3.913-6.957a17.685,17.685,0,0,0,5.854,1q.443,0,.887-.022a17.917,17.917,0,0,0,7.394-2.01,15.931,15.931,0,0,1,9.946-1.622l5.408,9.614A4.571,4.571,0,0,1,84.3,43.118Z" transform="translate(-48.491)" fill="#357b70"/>
        </g>
      </g>
      <g id="Grupo_1107241" data-name="Grupo 1107241" transform="translate(12.69 21.409)">
        <g id="Grupo_1107240" data-name="Grupo 1107240">
          <path id="Trazado_907612" data-name="Trazado 907612" d="M188.768,232a2.768,2.768,0,1,0,2.768,2.768A2.772,2.772,0,0,0,188.768,232Zm0,3.691a.923.923,0,1,1,.923-.923A.924.924,0,0,1,188.768,235.691Z" transform="translate(-186 -232)" fill="#357b70"/>
        </g>
      </g>
      <g id="Grupo_1107243" data-name="Grupo 1107243" transform="translate(10.844 39.866)">
        <g id="Grupo_1107242" data-name="Grupo 1107242">
          <path id="Trazado_907613" data-name="Trazado 907613" d="M185.379,432H166.923a.923.923,0,1,0,0,1.846h18.456a.923.923,0,1,0,0-1.846Z" transform="translate(-166 -432)" fill="#357b70"/>
        </g>
      </g>
    </g>
  </g>
</svg>
