<svg xmlns="http://www.w3.org/2000/svg" xmlns:xlink="http://www.w3.org/1999/xlink" width="99" height="99.706" viewBox="0 0 99 99.706">
  <defs>
    <linearGradient id="linear-gradient" x1="0.356" y1="0.973" x2="1.356" y2="0.973" gradientUnits="objectBoundingBox">
      <stop offset="0" stop-color="#6af6e0"/>
      <stop offset="1" stop-color="#15312d"/>
    </linearGradient>
    <filter id="Elipse_12850" x="0" y="0.706" width="99" height="99" filterUnits="userSpaceOnUse">
      <feOffset dy="3" input="SourceAlpha"/>
      <feGaussianBlur stdDeviation="3" result="blur"/>
      <feFlood flood-opacity="0.161"/>
      <feComposite operator="in" in2="blur"/>
      <feComposite in="SourceGraphic"/>
    </filter>
  </defs>
  <g id="Grupo_1107021" data-name="Grupo 1107021" transform="translate(11585.295 11759)">
    <path id="Trazado_906881" data-name="Trazado 906881" d="M554.69-86.614a47.094,47.094,0,0,0,40.932,52.544,47.784,47.784,0,0,0,8.085.312A47.074,47.074,0,0,0,648.166-75a47.094,47.094,0,0,0-40.932-52.544A47.094,47.094,0,0,0,554.69-86.614Zm83.092,10.323A36.635,36.635,0,0,1,596.91-44.444a36.643,36.643,0,0,1-31.846-40.881,36.635,36.635,0,0,1,40.88-31.836A36.626,36.626,0,0,1,637.782-76.291Z" transform="translate(-12137.325 -11631.091)" fill="url(#linear-gradient)"/>
    <g transform="matrix(1, 0, 0, 1, -11585.29, -11759)" filter="url(#Elipse_12850)">
      <circle id="Elipse_12850-2" data-name="Elipse 12850" cx="40.5" cy="40.5" r="40.5" transform="translate(9 6.71)" fill="#fff"/>
    </g>
    <g id="natacion" transform="translate(-11568.102 -11736.131)">
      <path id="Trazado_906873" data-name="Trazado 906873" d="M63.616,97.542h-.008a7.259,7.259,0,0,0-4.425,1.536,5.42,5.42,0,0,1-6.651,0,7.306,7.306,0,0,0-4.584-1.536l2.323-2.323a7.885,7.885,0,0,0,2.1-7.464.948.948,0,1,0-1.843.441,6,6,0,0,1-1.515,5.594l-8.537-8.537a6.045,6.045,0,0,1,8.45.087A.948.948,0,0,0,50.272,84a7.942,7.942,0,0,0-11.218,0l-4.385,4.385a7.881,7.881,0,0,0-2.323,5.609,7.981,7.981,0,0,0,.147,1.514L30.43,93.8a2.855,2.855,0,0,1-.993-2.649,90.809,90.809,0,0,0,1.024-10.016c1.819-1.068,8.8-5.158,12.6-7.231l4.758,1.035a2.659,2.659,0,0,0,2.5-4.419L54.1,68.97a2.668,2.668,0,0,0-1.176-5.132c-6.637.412-10.358,2.258-12.065,3.4-.725.139-3.279.655-6.329,1.569a.948.948,0,0,0,.544,1.815c3.431-1.028,6.3-1.552,6.325-1.557a.949.949,0,0,0,.374-.155c3.4-2.372,8.519-3.013,11.269-3.184a.754.754,0,0,1,.62.255.774.774,0,0,1-.282,1.232l-5.6,2.3a.948.948,0,0,0,0,1.754l.891.362a.764.764,0,0,1,.362,1.109.765.765,0,0,1-.812.345l-5.1-1.11a.948.948,0,0,0-.653.093c-4.285,2.322-13.316,7.638-13.407,7.691a.948.948,0,0,0-.466.775,89.419,89.419,0,0,1-1.025,10.31,4.758,4.758,0,0,0,1.655,4.413l2.769,2.293a7.3,7.3,0,0,0-4.06,1.523,5.42,5.42,0,0,1-6.651,0,7.3,7.3,0,0,0-3.6-1.484L20.2,94.91a.947.947,0,0,0,.248-.518c.251-1.8.434-3.574.585-5.1a.948.948,0,1,0-1.886-.187c-.141,1.422-.309,3.066-.535,4.727L14.9,97.791a7.3,7.3,0,0,0-2.591,1.287,5.42,5.42,0,0,1-6.651,0A7.33,7.33,0,0,0,.917,97.545a.947.947,0,1,0,.065,1.894,5.436,5.436,0,0,1,3.512,1.135,7.314,7.314,0,0,0,8.975,0,5.42,5.42,0,0,1,6.651,0,7.314,7.314,0,0,0,8.975,0,5.42,5.42,0,0,1,6.651,0,7.314,7.314,0,0,0,8.975,0,5.42,5.42,0,0,1,6.651,0,7.314,7.314,0,0,0,8.975,0,5.378,5.378,0,0,1,3.279-1.138.948.948,0,0,0-.008-1.9Zm-23.339,2.49a6.038,6.038,0,0,1-4.661-9.875,2.889,2.889,0,0,0,.565.8l1.555,1.555a4.085,4.085,0,0,0,2.894,1.124,4.086,4.086,0,0,0,1.124,2.894l1.555,1.555a2.873,2.873,0,0,0,.806.565A5.992,5.992,0,0,1,40.277,100.032Zm5.782-3.281a1,1,0,0,1-1.41,0L43.095,95.2a2.776,2.776,0,0,1-.494-2.367.947.947,0,0,0-1.158-1.158,2.766,2.766,0,0,1-2.367-.494l-1.555-1.555a1,1,0,0,1,0-1.409l1.62-1.62,8.538,8.538Z" transform="translate(-0.001 -63.833)" fill="#163750"/>
      <path id="Trazado_906874" data-name="Trazado 906874" d="M156.311,411.967a7.338,7.338,0,0,0-4.479,1.534,5.409,5.409,0,0,1-6.638,0,7.3,7.3,0,0,0-8.957,0,5.41,5.41,0,0,1-6.638,0,7.3,7.3,0,0,0-4.73-1.529.946.946,0,1,0,.065,1.89A5.426,5.426,0,0,1,128.44,415a7.3,7.3,0,0,0,8.957,0,5.41,5.41,0,0,1,6.638,0,7.3,7.3,0,0,0,8.957,0,5.438,5.438,0,0,1,3.319-1.137.946.946,0,1,0,0-1.891Z" transform="translate(-108.326 -368.067)" fill="#ffd503"/>
      <path id="Trazado_906875" data-name="Trazado 906875" d="M155.932,129.179a.96.96,0,0,0,.109.006.946.946,0,0,0,.938-.838c.43-3.744,1.011-6.683,2.449-8.853,1.116-1.685,3.759-3.357,7.645-4.837a.946.946,0,0,0-.673-1.768c-4.318,1.644-7.194,3.515-8.549,5.56-1.646,2.484-2.29,5.667-2.751,9.682A.946.946,0,0,0,155.932,129.179Z" transform="translate(-135.537 -106.649)" fill="#163750"/>
    </g>
  </g>
</svg>
