<svg xmlns="http://www.w3.org/2000/svg" xmlns:xlink="http://www.w3.org/1999/xlink" width="99" height="99.706" viewBox="0 0 99 99.706">
  <defs>
    <linearGradient id="linear-gradient" x1="0.356" y1="0.973" x2="1.356" y2="0.973" gradientUnits="objectBoundingBox">
      <stop offset="0" stop-color="#6af6e0"/>
      <stop offset="1" stop-color="#15312d"/>
    </linearGradient>
    <filter id="Elipse_12850" x="0" y="0.706" width="99" height="99" filterUnits="userSpaceOnUse">
      <feOffset dy="3" input="SourceAlpha"/>
      <feGaussianBlur stdDeviation="3" result="blur"/>
      <feFlood flood-opacity="0.161"/>
      <feComposite operator="in" in2="blur"/>
      <feComposite in="SourceGraphic"/>
    </filter>
  </defs>
  <g id="Grupo_1107023" data-name="Grupo 1107023" transform="translate(11585.295 11759)">
    <path id="Trazado_906881" data-name="Trazado 906881" d="M554.69-86.614a47.094,47.094,0,0,0,40.932,52.544,47.784,47.784,0,0,0,8.085.312A47.074,47.074,0,0,0,648.166-75a47.094,47.094,0,0,0-40.932-52.544A47.094,47.094,0,0,0,554.69-86.614Zm83.092,10.323A36.635,36.635,0,0,1,596.91-44.444a36.643,36.643,0,0,1-31.846-40.881,36.635,36.635,0,0,1,40.88-31.836A36.626,36.626,0,0,1,637.782-76.291Z" transform="translate(-12137.325 -11631.091)" fill="url(#linear-gradient)"/>
    <g transform="matrix(1, 0, 0, 1, -11585.29, -11759)" filter="url(#Elipse_12850)">
      <circle id="Elipse_12850-2" data-name="Elipse 12850" cx="40.5" cy="40.5" r="40.5" transform="translate(9 6.71)" fill="#fff"/>
    </g>
    <g id="Page-1" transform="translate(-11562.23 -11738.128)">
      <g id="_038---Jacuzzi" data-name="038---Jacuzzi" transform="translate(0 0)">
        <path id="Shape" d="M35.455,4.616a.866.866,0,0,0-.107-.006h-.009a.878.878,0,0,0-.088,1.75c10.28,1.269,15.659,4.42,15.659,6.878a3.139,3.139,0,0,1-1.257,2.194c-1.24-2.809-6.17-5.072-13.729-6.188a.878.878,0,1,0-.257,1.736c8.075,1.192,12.025,3.6,12.5,5.5-4.307,2.542-12.768,4.171-21.832,4.171S8.808,19.026,4.5,16.484c.47-1.943,4.583-4.406,13.01-5.581a.878.878,0,1,0-.241-1.738c-6.2.864-12.776,2.934-14.258,6.266a3.136,3.136,0,0,1-1.254-2.194C1.756,10.9,6.527,7.773,17,6.411a.878.878,0,0,0-.226-1.741C8.665,5.725,0,8.529,0,13.238V18.61a4.132,4.132,0,0,0,.878,2.47V36.266A4.08,4.08,0,0,0,0,38.694v5.372c0,3.187,4.006,5.881,11.281,7.579A67.134,67.134,0,0,0,26.333,53.23a67.121,67.121,0,0,0,15.051-1.585c7.276-1.7,11.282-4.391,11.282-7.579V38.694a4.08,4.08,0,0,0-.878-2.43V21.079a4.132,4.132,0,0,0,.878-2.47v-5.37c0-4.793-8.891-7.6-17.211-8.622ZM3.1,17.7c4.489,2.907,13.389,4.714,23.229,4.714S45.073,20.6,49.56,17.7a10.431,10.431,0,0,0,1.35-1.024V18.61c0,3.117-6.905,5.163-9.927,5.87a65.337,65.337,0,0,1-14.651,1.539c-6.632,0-18.95-.989-23.963-5.877a2.512,2.512,0,0,1-.614-1.532V16.674A10.326,10.326,0,0,0,3.1,17.7ZM50.033,36.406A6.138,6.138,0,0,1,47.4,38.74v-14.5a15.4,15.4,0,0,0,2.633-1.483Zm-7.9,4.348V26a36.183,36.183,0,0,0,3.511-1.059V39.579A29.554,29.554,0,0,1,42.133,40.754ZM26.333,42.6c-.9,0-1.773-.018-2.633-.047V27.726c.871.028,1.748.048,2.633.048s1.763-.02,2.633-.048V42.553c-.86.029-1.735.047-2.633.047Zm-8.778-.512V27.267q2.136.253,4.389.382V42.474c-1.535-.087-3-.217-4.389-.386ZM2.633,36.422V22.754a15.3,15.3,0,0,0,2.633,1.483V38.746a6.189,6.189,0,0,1-2.633-2.324ZM7.022,24.943A36.422,36.422,0,0,0,10.533,26V40.755a29.323,29.323,0,0,1-3.511-1.177Zm5.267,1.464q1.691.359,3.511.627V41.845q-1.869-.284-3.511-.657Zm18.433,1.241q2.251-.125,4.389-.382v14.82q-2.083.253-4.389.386Zm6.144-.614q1.819-.263,3.511-.628V41.187q-1.643.37-3.511.657ZM50.91,44.063c0,2.19-3.8,4.439-9.927,5.87a65.337,65.337,0,0,1-14.651,1.541,65.352,65.352,0,0,1-14.652-1.539c-6.122-1.431-9.926-3.68-9.926-5.87V38.694a1.86,1.86,0,0,1,.049-.419c4.346,4.86,17.877,6.08,24.528,6.08,7.012,0,20.29-1.342,24.528-6.08a1.86,1.86,0,0,1,.049.419Z" transform="translate(0 -0.563)" fill="#163750"/>
        <path id="Shape-2" data-name="Shape" d="M48.342,47.339C43.907,49.794,35.66,51.32,26.823,51.32S9.739,49.794,5.3,47.339a.878.878,0,0,0-.85,1.536c4.751,2.629,13.113,4.2,22.369,4.2s17.618-1.571,22.369-4.2a.878.878,0,1,0-.85-1.536Z" transform="translate(-0.49 -5.772)" fill="#163750"/>
        <path id="Shape-3" data-name="Shape" d="M22,12.581a4.293,4.293,0,0,0,1.053,2.868.878.878,0,1,0,1.4-1.053,2.618,2.618,0,0,1-.7-1.813,2.657,2.657,0,0,1,.716-1.834,4.326,4.326,0,0,0,1.039-2.86,4.283,4.283,0,0,0-1.053-2.858,2.622,2.622,0,0,1-.7-1.813,2.618,2.618,0,0,1,.7-1.814.878.878,0,0,0-1.4-1.053A4.293,4.293,0,0,0,22,3.219a4.3,4.3,0,0,0,1.053,2.869,2.58,2.58,0,0,1,.7,1.8,2.638,2.638,0,0,1-.7,1.823A4.3,4.3,0,0,0,22,12.581Z" transform="translate(-2.689 0)" fill="#48c1ec"/>
        <path id="Shape-4" data-name="Shape" d="M28,12.581a4.293,4.293,0,0,0,1.053,2.868.878.878,0,1,0,1.4-1.053,2.618,2.618,0,0,1-.7-1.813,2.657,2.657,0,0,1,.716-1.834,4.326,4.326,0,0,0,1.039-2.86,4.283,4.283,0,0,0-1.053-2.858,2.622,2.622,0,0,1-.7-1.813,2.618,2.618,0,0,1,.7-1.814.878.878,0,1,0-1.4-1.053A4.293,4.293,0,0,0,28,3.219a4.3,4.3,0,0,0,1.053,2.869,2.58,2.58,0,0,1,.7,1.8,2.638,2.638,0,0,1-.7,1.823A4.3,4.3,0,0,0,28,12.581Z" transform="translate(-3.422 0)" fill="#48c1ec"/>
        <path id="Shape-5" data-name="Shape" d="M34,12.581a4.293,4.293,0,0,0,1.053,2.868.878.878,0,0,0,1.4-1.053,2.618,2.618,0,0,1-.7-1.813,2.657,2.657,0,0,1,.716-1.834,4.326,4.326,0,0,0,1.039-2.86,4.283,4.283,0,0,0-1.053-2.858,2.622,2.622,0,0,1-.7-1.813,2.618,2.618,0,0,1,.7-1.814.878.878,0,1,0-1.4-1.053A4.293,4.293,0,0,0,34,3.219a4.3,4.3,0,0,0,1.053,2.869,2.58,2.58,0,0,1,.7,1.8,2.638,2.638,0,0,1-.7,1.823A4.3,4.3,0,0,0,34,12.581Z" transform="translate(-4.156 0)" fill="#48c1ec"/>
        <circle id="Oval" cx="0.878" cy="0.878" r="0.878" transform="translate(13.167 12.289)" fill="#163750"/>
        <circle id="Oval-2" data-name="Oval" cx="0.878" cy="0.878" r="0.878" transform="translate(10.533 14.922)" fill="#163750"/>
        <circle id="Oval-3" data-name="Oval" cx="0.878" cy="0.878" r="0.878" transform="translate(15.8 14.922)" fill="#163750"/>
        <circle id="Oval-4" data-name="Oval" cx="0.878" cy="0.878" r="0.878" transform="translate(37.744 12.289)" fill="#163750"/>
        <circle id="Oval-5" data-name="Oval" cx="0.878" cy="0.878" r="0.878" transform="translate(35.111 14.922)" fill="#163750"/>
        <circle id="Oval-6" data-name="Oval" cx="0.878" cy="0.878" r="0.878" transform="translate(40.377 14.922)" fill="#163750"/>
      </g>
    </g>
  </g>
</svg>
