<svg xmlns="http://www.w3.org/2000/svg" width="72" height="72" viewBox="0 0 72 72">
  <g id="Grupo_1107275" data-name="Grupo 1107275" transform="translate(-285 -3058.42)">
    <circle id="Elipse_12856" data-name="Elipse 12856" cx="36" cy="36" r="36" transform="translate(285 3058.42)" fill="#55cfcf"/>
    <g id="Temperature_Scale" data-name="Temperature Scale" transform="translate(306.73 3069.202)">
      <path id="Trazado_907614" data-name="Trazado 907614" d="M30.423,30.775V7.553a7.553,7.553,0,1,0-15.107,0V30.775a11.87,11.87,0,0,0,6.129,20.934C33.153,53.079,39.541,38.3,30.423,30.775ZM29.344,47.188a9.712,9.712,0,1,1-12.3-15.031c.626-.475.432,1.219.432-24.6a5.4,5.4,0,0,1,10.791,0c0,25.822-.183,24.139.432,24.6a9.712,9.712,0,0,1,.647,15.031Z" transform="translate(-11.006)" fill="#2a6767"/>
      <path id="Trazado_907615" data-name="Trazado 907615" d="M34.079,7.158H38.4A1.079,1.079,0,1,0,38.4,5H34.079a1.079,1.079,0,1,0,0,2.158Z" transform="translate(-9.267 0.395)" fill="#2a6767"/>
      <path id="Trazado_907616" data-name="Trazado 907616" d="M34.079,12.158h6.474a1.079,1.079,0,1,0,0-2.158H34.079a1.079,1.079,0,1,0,0,2.158Z" transform="translate(-9.267 0.791)" fill="#2a6767"/>
      <path id="Trazado_907617" data-name="Trazado 907617" d="M34.079,17.158H38.4A1.079,1.079,0,1,0,38.4,15H34.079a1.079,1.079,0,1,0,0,2.158Z" transform="translate(-9.267 1.186)" fill="#2a6767"/>
      <path id="Trazado_907618" data-name="Trazado 907618" d="M40.553,20H34.079a1.079,1.079,0,0,0,0,2.158h6.474a1.079,1.079,0,0,0,0-2.158Z" transform="translate(-9.267 1.581)" fill="#2a6767"/>
      <path id="Trazado_907619" data-name="Trazado 907619" d="M38.4,25H34.079a1.079,1.079,0,0,0,0,2.158H38.4A1.079,1.079,0,0,0,38.4,25Z" transform="translate(-9.267 1.977)" fill="#2a6767"/>
      <path id="Trazado_907620" data-name="Trazado 907620" d="M25.79,32.789c0-27.343.378-26.545-.939-27.829a3.237,3.237,0,0,0-5.536,2.277V32.789c-7.251,3.41-4.78,14.373,3.237,14.373S33.041,36.2,25.79,32.789ZM23.632,7.237v9.712H21.473V7.237a1.079,1.079,0,0,1,2.158,0ZM22.553,45c-6.043,0-7.489-8.5-1.8-10.478a1.079,1.079,0,0,0,.723-1.014V19.107h2.158V33.512a1.079,1.079,0,0,0,.723,1.014C30.03,36.5,28.6,45,22.553,45Z" transform="translate(-10.689 0.316)" fill="#2a6767"/>
    </g>
  </g>
</svg>
