<svg xmlns="http://www.w3.org/2000/svg" width="72" height="72" viewBox="0 0 72 72">
  <g id="Grupo_1107276" data-name="Grupo 1107276" transform="translate(-705 -3058.42)">
    <circle id="Elipse_12857" data-name="Elipse 12857" cx="36" cy="36" r="36" transform="translate(705 3058.42)" fill="#55cfcf"/>
    <g id="co2" transform="translate(723.172 3076.202)">
      <g id="Grupo_1107224" data-name="Grupo 1107224" transform="translate(0.351 5.734)">
        <path id="Trazado_907590" data-name="Trazado 907590" d="M44.423,100.282a7.747,7.747,0,0,0-7.636-7.738,7.736,7.736,0,0,0-12.376-4.718,7.737,7.737,0,0,0-12.376,4.718A7.737,7.737,0,0,0,7.82,106.7a7.732,7.732,0,0,0,1.009,4.371,4.671,4.671,0,1,0,7.957,3.787,7.737,7.737,0,0,0,1.976-.6,6.189,6.189,0,0,0,4.83,2.3,6.258,6.258,0,0,0,5.3-2.963,7.738,7.738,0,0,0,12.127-6.374c0-.171-.006-.345-.018-.52a7.769,7.769,0,0,0,3.42-6.42ZM12.141,117.439a3.074,3.074,0,0,1-2.359-5.047,7.8,7.8,0,0,0,5.377,2.559,3.08,3.08,0,0,1-3.019,2.488ZM39.758,105.6a.8.8,0,0,0-.391.8,6.224,6.224,0,0,1,.057.827,6.14,6.14,0,0,1-9.866,4.882,6.2,6.2,0,0,0,.257-1.768.8.8,0,0,0-1.6,0,4.625,4.625,0,0,1-8.536,2.471.81.81,0,0,0-1.074-.264,6.145,6.145,0,0,1-9.21-5.321,4.675,4.675,0,0,1,1.861-3.807.8.8,0,1,0-.927-1.3,6.116,6.116,0,0,0-2.139,2.87,6.139,6.139,0,0,1,3.945-10.844c.163,0,.335.008.528.024a.81.81,0,0,0,.863-.732,6.12,6.12,0,0,1,1.944-4.01,6.19,6.19,0,0,1,7.794-.457A6.61,6.61,0,0,0,22,91.523a.8.8,0,0,0,.6.954.807.807,0,0,0,.954-.6,5.739,5.739,0,0,1,5.62-4.091,6.141,6.141,0,0,1,6.12,5.65.81.81,0,0,0,.863.732c.192-.016.365-.024.528-.024A6.141,6.141,0,0,1,39.758,105.6Z" transform="translate(-4.4 -86.186)" fill="#2a6767"/>
      </g>
      <g id="Grupo_1107225" data-name="Grupo 1107225" transform="translate(34.917 5.791)">
        <path id="Trazado_907591" data-name="Trazado 907591" d="M440.311,86.9a2.981,2.981,0,1,0,2.981,2.981A2.984,2.984,0,0,0,440.311,86.9Zm0,4.365a1.384,1.384,0,1,1,1.384-1.384A1.386,1.386,0,0,1,440.311,91.263Z" transform="translate(-437.33 -86.898)" fill="#2a6767"/>
      </g>
      <g id="Grupo_1107226" data-name="Grupo 1107226" transform="translate(0 0)">
        <path id="Trazado_907592" data-name="Trazado 907592" d="M2.028,22.006A.8.8,0,0,0,2.2,20.89a3.092,3.092,0,1,1,5.584-1.831,3.064,3.064,0,0,1-.631,1.872.8.8,0,1,0,1.27.968,4.648,4.648,0,0,0,.958-2.839A4.689,4.689,0,1,0,.911,21.837.8.8,0,0,0,2.028,22.006Z" transform="translate(0 -14.37)" fill="#2a6767"/>
      </g>
      <g id="Grupo_1107227" data-name="Grupo 1107227" transform="translate(10.488 16.602)">
        <path id="Trazado_907593" data-name="Trazado 907593" d="M137.641,227.731a.8.8,0,0,0-1.125.1,1.671,1.671,0,0,1-1.31.576,2.252,2.252,0,1,1,1.258-4.119.8.8,0,0,0,.894-1.323A3.849,3.849,0,1,0,135.206,230a3.278,3.278,0,0,0,2.533-1.146A.8.8,0,0,0,137.641,227.731Z" transform="translate(-131.358 -222.305)" fill="#2a6767"/>
      </g>
      <g id="Grupo_1107228" data-name="Grupo 1107228" transform="translate(26.862 19.652)">
        <path id="Trazado_907594" data-name="Trazado 907594" d="M339.891,265.4h-.01l-.923.009c.229-.312.508-.7.847-1.186a3.136,3.136,0,0,0,.68-1.689,2.03,2.03,0,0,0-4.022-.393.8.8,0,1,0,1.567.308.433.433,0,0,1,.425-.348.427.427,0,0,1,.422.472,2.432,2.432,0,0,1-.38.734c-.759,1.085-1.212,1.678-1.455,2-.312.409-.518.678-.387,1.105a.829.829,0,0,0,.531.539,3.713,3.713,0,0,0,1.136.061c.373,0,.882,0,1.579-.013a.8.8,0,0,0-.01-1.6Z" transform="translate(-336.449 -260.506)" fill="#2a6767"/>
      </g>
      <g id="Grupo_1107229" data-name="Grupo 1107229" transform="translate(17.934 16.602)">
        <path id="Trazado_907595" data-name="Trazado 907595" d="M228.464,222.3a3.848,3.848,0,1,0,3.848,3.848A3.853,3.853,0,0,0,228.464,222.3Zm0,6.1a2.252,2.252,0,1,1,2.252-2.252A2.254,2.254,0,0,1,228.464,228.4Z" transform="translate(-224.616 -222.305)" fill="#2a6767"/>
      </g>
      <g id="Grupo_1107230" data-name="Grupo 1107230" transform="translate(3.894 7.785)">
        <path id="Trazado_907596" data-name="Trazado 907596" d="M48.9,113.111a.8.8,0,1,0,.22-1.107A.805.805,0,0,0,48.9,113.111Z" transform="translate(-48.772 -111.872)" fill="#2a6767"/>
      </g>
    </g>
  </g>
</svg>
