<svg xmlns="http://www.w3.org/2000/svg" width="72" height="72" viewBox="0 0 72 72">
  <g id="Grupo_1107273" data-name="Grupo 1107273" transform="translate(-285 -2885.662)">
    <circle id="Elipse_11597" data-name="Elipse 11597" cx="36" cy="36" r="36" transform="translate(285 2885.662)" fill="#55cfcf"/>
    <g id="Beauty_Hand_Cream" data-name="Beauty Hand Cream" transform="translate(246.867 2900.662)">
      <g id="Outline" transform="translate(58.634 0)">
        <path id="Trazado_906864" data-name="Trazado 906864" d="M260.608,37.337A15.63,15.63,0,0,0,271.748,42h0a15.632,15.632,0,0,0,11.141-4.664A15.928,15.928,0,0,0,287.5,26.1a12.562,12.562,0,0,0-.682-3.78,29.653,29.653,0,0,0-1.713-4.079,81.55,81.55,0,0,0-7.739-12C274.923,3,272.962.708,272.747.457l0,0a1.313,1.313,0,0,0-1.988,0l0,0c-.39.456-3.928,4.6-7.468,9.724a1.313,1.313,0,0,0,2.161,1.491c1.87-2.707,3.759-5.152,5.014-6.725.438-.551.874-1.088,1.293-1.6,1.417,1.719,4.179,5.174,6.809,9.053a61.164,61.164,0,0,1,4.44,7.5,15.575,15.575,0,0,1,1.877,6.195,13.268,13.268,0,0,1-3.849,9.389,13.024,13.024,0,0,1-18.552,0,13.264,13.264,0,0,1-3.849-9.389,14.53,14.53,0,0,1,1.588-5.583,1.313,1.313,0,0,0-.646-1.739,1.286,1.286,0,0,0-.546-.12,1.313,1.313,0,0,0-1.193.766A16.655,16.655,0,0,0,256,26.1,15.928,15.928,0,0,0,260.608,37.337Z" transform="translate(-256 0.002)" fill="#2a6767"/>
        <path id="Trazado_906865" data-name="Trazado 906865" d="M282.178,87.949a1.312,1.312,0,1,0-.448-1.8l0,0A1.315,1.315,0,0,0,282.178,87.949Z" transform="translate(-277.351 -71.482)" fill="#2a6767"/>
        <path id="Trazado_906866" data-name="Trazado 906866" d="M377.312,161.392a1.307,1.307,0,0,0,.759-.242,10.709,10.709,0,0,0,4.49-8.726,1.313,1.313,0,0,0-2.625,0,8.08,8.08,0,0,1-3.385,6.585,1.313,1.313,0,0,0,.761,2.383Z" transform="translate(-356.311 -126.319)" fill="#2a6767"/>
        <ellipse id="Elipse_12849" data-name="Elipse 12849" cx="1.433" cy="1.074" rx="1.433" ry="1.074" transform="translate(14.186 34.383)" fill="#2a6767"/>
      </g>
    </g>
  </g>
</svg>
